<?xml version="1.0" encoding="UTF-8"?>
<svg id="Layer_2" data-name="Layer 2" xmlns="http://www.w3.org/2000/svg" viewBox="-70 -70 401.76 271.74">
  <g id="Layer_1-2" data-name="Layer 1">
    <path d="M197.22,130.14c-23.59-3.69-40.03-16.71-58.69-28.99-21.5-14.14-52.39-17.02-76.63-8.06-10.81,3.99-20.51,9.14-29.05,16.92l-19,17.3c-6.61,1.69-12.92-2.62-13.84-9.89,1.28-2.59,3.01-5.27,5.06-7.26,14.76-14.33,20.88-26.97,14.37-46.65-1.74-5.26,1.96-10.15,6.67-11.79,11.02-3.83,14.49,15.53,15.85,29.26l12.49-6.3c8.29-4.18,13.07-12.46,15.76-20.95,5.45-17.23-5.62-26.2,1.37-33.12,2.44-2.41,6.68-4.63,10.38-2.43,7.87,4.68,10.64,27.03,6.13,41.35-1.12,3.57-2.1,6.9-2.48,10.18,17.98-1.23,31.75-10.15,42.35-23.29C145.99,24.08,135.62,2.79,148.06.16c3.85-.81,10.45,1.51,10.83,6.75,1.54,21.3-6.55,41.99-21.36,57.08-2.56,2.6-4.47,4.39-6.46,7.48,26.07.05,49.5-8.6,59.11-33.52,2.64-6.84,4.33-13.55,6.03-20.92.93-4.06,4.06-9.74,8.66-10.04,7.91-.51,10.63,7.51,9.57,13.9-2.59,15.63-7.51,29.56-17.35,41.99-9.29,11.74-26.82,23.54-42.01,25.06,2.32,3.22,5.92,8.03,9.69,9.83,36.06,4.48,66.28-7.04,77.34-42.68,1.15-3.71,2.52-7.42,4.91-10.22,2.15-2.52,6.37-1.96,9.02-1.07,2.44.81,6.05,3.54,5.68,6.89-1.11,10.11-5.08,19.15-9.96,27.88-7.16,12.8-17.81,22.63-31.04,28.85-3.51,1.65-6.36,2.92-9.31,6.23l32.83-4.57c5.15-1.9,10.13-.54,12.76,4.77,2.01,2.6,2.29,10.52-2.82,12.2-18.22,5.98-37.89,7.08-56.97,4.1Z"/>
  </g>
</svg>