<?xml version="1.0" encoding="UTF-8"?>
<svg id="Layer_2" data-name="Layer 2" xmlns="http://www.w3.org/2000/svg" viewBox="0 0 250 268.17">
  <defs>
    <style>
      .cls-1 {
        fill: #fff;
      }
    </style>
  </defs>
  <g id="Layer_1-2" data-name="Layer 1">
    <path d="M90.04,252.25c-14.43,16.05-35.6,17.14-57.52,15.21-3.87-.34-5.55-7.53-4.86-9.99,1.08-5.23,5.19-7.84,10.39-7.41l22.21-1.77c12.65-1.01,21.14-12.84,22.96-26.45-9.53.73-17.33-4.27-21.2-12.88l-31.75-70.59c-2.72-6.04-5.94-10.1-10.52-14.67C-12.24,91.84-3.56,33.54,32.74,11.51,48.54,1.91,66.45-2,84.84.98l149.7,24.26c7.28,1.18,13.66,6.44,14.29,14.32,1.67,20.8,1.21,41.7.7,62.79-.25,10.12-6.91,16.85-16.85,18.51l-112.17,18.73.05,59.59c0,11.46-6.38,20.42-18.23,22.22-1.53,11.61-4.62,22.31-12.28,30.84ZM231,102.42l.11-58.21-33.59-5.44-119.24-20.11c-22.86-3.86-43.18,7.81-53.53,27.58-11.96,22.84-8.76,50.31,10.46,68.18,6.11,5.68,14.19,9.75,22.25,12.26,7.27,2.27,14.79,1.63,22.51.37l151.03-24.63ZM79.64,202.45l21.6.13.14-59.47-16.97,2.87c-10.28,1.74-19.69,1.6-30.45-1.17l25.68,57.65Z"/>
    <path d="M110.78,73.36c0,20.38-16.53,36.91-36.91,36.91s-36.91-16.53-36.91-36.91,16.53-36.91,36.91-36.91,36.91,16.53,36.91,36.91ZM91.13,78.27c1.6-6,.95-11.57-2.64-16.53-4.96-6.86-18.3-10.57-26.39-2.99-5.55,5.21-7.87,12.41-5.48,20.49,1.58,5.32,7.47,11.32,14.12,11.89,9.72.83,17.83-3.29,20.38-12.86Z"/>
  </g>
</svg>