<?xml version="1.0" encoding="UTF-8"?>
<svg id="Layer_2" data-name="Layer 2" xmlns="http://www.w3.org/2000/svg" viewBox="0 0 125.23 268.77">
  <g id="Layer_1-2" data-name="Layer 1">
    <path d="M105.67,268.11c-28.95.98-56.91.77-85.53.09-8.24-.2-17.98-5.26-18.96-13.86-1.68-14.76-1.09-29.04-1.04-43.89l.21-62.31c.03-7.59,8.16-10.77,18.09-9.46l.43-35.93c.08-6.75,3.91-10.15,11.29-11.01l.31-81.68c.02-4.05,1.23-7.18,4.2-8.88,2.64-1.51,6.67-1.69,9.76.17l45.43,27.25c3.53,2.12,5.02,5.22,5.04,9.27l.34,54.1c4.24.62,10.68,2.04,10.79,6.61l.92,39.69,9.35.77c4.86.4,8.8,4.41,8.81,9.61l.11,98.68c.01,11-7.24,20.35-19.56,20.76ZM76.43,91.8l-.09-49.97-27.41-16.36.35,66.45,27.15-.12ZM87.88,111.05l-50.29.2.11,27.53,50.29-.2-.11-27.53ZM106.44,157.64H18.88v91.64h87.56v-91.64Z"/>
  </g>
</svg>