<?xml version="1.0" encoding="UTF-8"?>
<svg id="Layer_2" data-name="Layer 2" xmlns="http://www.w3.org/2000/svg" viewBox="0 0 203.4 270.61">
  <g id="Layer_1-2" data-name="Layer 1">
    <path d="M105.3,222.11c-35.67,1.94-65.53-23.55-68.01-58.76-1.31-18.63-.39-36.59-.52-55.58-1.96,1.6-4.45,3.98-5.63,6.24-10.37,19.92-12.8,28.73-12.78,51.75l.09,94.66c0,2.8-1.18,6.88-2.8,8.18-1.95,1.57-5.68,1.91-8.37,1.8C2.97,270.24-.02,267.98,0,263.28l.44-112.54c.11-28.03,15.16-52.68,36.06-70.09,3.76-3.13,5.71-6.64,6.95-11.18,4.96-18.18,12.98-34.81,23.12-50.67C74.51,6.41,88-.28,102.17,0s26.72,7.62,34.66,19.99c10.22,15.92,17.62,32.63,22.81,50.91,1.03,3.62,3.05,6.77,5.84,9.12,9.93,8.38,18.5,17.59,24.82,29.05,8.93,16.2,12.92,33.96,12.95,52.67l.15,97.43c0,2.84-1.27,7.46-2.52,9.59-4.38,2.88-11.59,2.33-15.36-1.28l-.86-15.07-.18-89.68c-.04-19.82-4.83-39.25-18.19-55.51-.51,19.99.93,37.71-.63,56.45-2.65,31.95-27.8,56.65-60.37,58.43ZM101.26,203.37c25.92-2.34,44.64-18.32,45.92-43.81.73-14.43.55-28.16.22-42.82-.69-30.48-8.97-59.48-25.2-85.15-4.41-6.97-12.15-12.13-20.39-12.32-9.54-.22-17.22,6.05-22.04,13.78-13.08,20.99-20.77,44.03-23.89,68.71l-.07,57.98c-.03,24.13,20.06,42.31,45.44,43.63Z"/>
  </g>
</svg>